<svg xmlns="http://www.w3.org/2000/svg" width="70" height="60"><path d="M20.709 0c-1.826.004-3.612 1.038-4.531 2.615L1.886 27.385c-.904 1.582-.904 3.648 0 5.23l14.292 24.77c.919 1.577 2.705 2.611 4.53 2.615h28.583c1.826-.004 3.612-1.038 4.531-2.615l14.292-24.77c.904-1.582.904-3.648 0-5.23L53.822 2.615C52.903 1.038 51.117.004 49.292 0zm.259 14.982a.57.57 0 0 1 .12 0h4.93a.65.65 0 0 1 .539.32l8.363 14.87a.64.64 0 0 1 .08.24.64.64 0 0 1 .08-.24l8.343-14.87a.652.652 0 0 1 .558-.32h4.93c.437.004.764.553.56.938l-8.164 14.571 8.163 14.55c.224.389-.11.963-.559.959h-4.93a.653.653 0 0 1-.558-.34l-8.344-14.87a.64.64 0 0 1-.08-.24.639.639 0 0 1-.079.24l-8.363 14.87a.652.652 0 0 1-.54.34h-4.93c-.447.004-.782-.57-.558-.958l8.164-14.551-8.164-14.57c-.196-.353.043-.864.439-.939z" fill="#405873" fill-opacity=".442"/></svg>