<svg width="110" height="23" viewBox="0 0 110 23" xmlns="http://www.w3.org/2000/svg"><title>microsoft-logo-invert</title><g fill="none" fill-rule="evenodd"><path d="M109.973 10.621V8.687h-2.402V5.68l-.08.025-2.257.69-.044.014v2.278h-3.56V7.418c0-.59.132-1.043.392-1.345.259-.298.629-.45 1.1-.45.34 0 .69.08 1.044.238l.089.04V3.864l-.042-.015c-.33-.119-.778-.179-1.334-.179-.7 0-1.337.153-1.892.455a3.233 3.233 0 0 0-1.298 1.284c-.305.548-.46 1.182-.46 1.883v1.395h-1.673v1.934h1.673v8.148h2.4V10.62h3.561V15.8c0 2.132 1.006 3.213 2.99 3.213a4.9 4.9 0 0 0 1.019-.113c.357-.077.6-.154.742-.235l.032-.02v-1.951l-.098.065c-.13.087-.292.157-.483.21-.19.054-.35.08-.474.08-.464 0-.808-.124-1.022-.372-.215-.249-.325-.685-.325-1.295v-4.76h2.402zM92.195 17.05c-.871 0-1.558-.289-2.042-.858-.488-.572-.734-1.388-.734-2.424 0-1.069.246-1.906.734-2.488.484-.578 1.165-.872 2.023-.872.832 0 1.495.28 1.97.834.476.556.718 1.386.718 2.468 0 1.094-.227 1.935-.676 2.498-.446.558-1.116.842-1.993.842zm.107-8.605c-1.663 0-2.983.487-3.924 1.448-.941.961-1.418 2.29-1.418 3.953 0 1.578.465 2.848 1.384 3.773.918.925 2.168 1.394 3.715 1.394 1.611 0 2.905-.494 3.847-1.468.94-.973 1.417-2.29 1.417-3.913 0-1.604-.447-2.883-1.33-3.802s-2.125-1.385-3.691-1.385zm-9.213 0c-1.131 0-2.066.29-2.781.86-.719.573-1.083 1.326-1.083 2.236 0 .474.078.894.233 1.25.156.359.397.673.718.938.318.262.808.537 1.459.816.547.225.954.416 1.213.566.254.146.433.294.535.438.098.141.149.334.149.572 0 .677-.508 1.007-1.551 1.007-.387 0-.83-.081-1.313-.24a4.934 4.934 0 0 1-1.344-.682l-.1-.072v2.312l.037.017c.34.157.768.289 1.273.393a6.83 6.83 0 0 0 1.36.157c1.226 0 2.214-.29 2.935-.864.726-.578 1.094-1.348 1.094-2.29 0-.68-.198-1.263-.588-1.733-.388-.466-1.06-.894-1.999-1.272-.747-.3-1.226-.55-1.424-.74-.19-.185-.287-.446-.287-.777 0-.293.12-.528.365-.718.247-.191.59-.289 1.021-.289.4 0 .81.064 1.217.187.406.124.764.29 1.062.493l.098.067V8.883l-.038-.016a5.24 5.24 0 0 0-1.078-.3 6.612 6.612 0 0 0-1.183-.123zM72.966 17.05c-.871 0-1.559-.289-2.043-.858-.487-.572-.733-1.388-.733-2.424 0-1.069.246-1.906.734-2.488.484-.578 1.164-.872 2.022-.872.833 0 1.495.28 1.97.834.477.556.72 1.386.72 2.468 0 1.094-.229 1.935-.678 2.498-.445.558-1.115.842-1.992.842zm.107-8.605c-1.663 0-2.983.487-3.924 1.448-.941.961-1.419 2.29-1.419 3.953 0 1.579.466 2.848 1.385 3.773.918.925 2.168 1.394 3.715 1.394 1.61 0 2.905-.494 3.847-1.468.94-.973 1.417-2.29 1.417-3.913 0-1.604-.447-2.883-1.33-3.802s-2.125-1.385-3.691-1.385zm-8.987 1.989V8.687h-2.371V18.77h2.371v-5.157c0-.877.199-1.598.591-2.142.388-.538.904-.81 1.534-.81.213 0 .453.035.713.105.257.07.443.144.553.223l.1.073V8.67l-.039-.017c-.22-.094-.533-.14-.928-.14a2.43 2.43 0 0 0-1.586.568c-.401.33-.691.785-.913 1.352h-.025zm-6.618-1.989c-1.088 0-2.059.233-2.884.693a4.67 4.67 0 0 0-1.902 1.956c-.434.835-.653 1.81-.653 2.898 0 .952.213 1.826.634 2.597a4.462 4.462 0 0 0 1.775 1.794c.755.418 1.627.63 2.593.63 1.127 0 2.089-.225 2.86-.67l.031-.018v-2.172l-.1.073a4.46 4.46 0 0 1-1.16.604c-.419.146-.8.22-1.136.22-.93 0-1.677-.291-2.22-.865-.543-.575-.819-1.382-.819-2.398 0-1.022.288-1.85.854-2.46.565-.61 1.313-.919 2.224-.919.78 0 1.54.264 2.258.786l.1.072v-2.29l-.033-.017c-.27-.152-.639-.277-1.097-.372a6.553 6.553 0 0 0-1.325-.142zm-7.073.243h-2.371V18.77h2.371V8.687zm-1.161-4.295c-.39 0-.731.133-1.01.396-.282.265-.424.597-.424.99 0 .385.14.712.419.969.276.256.618.386 1.015.386.397 0 .74-.13 1.02-.386.28-.257.423-.584.423-.97 0-.378-.139-.707-.412-.978a1.414 1.414 0 0 0-1.031-.407zm-5.917 3.551V18.77h2.42V4.7h-3.35L38.13 15.15 33.998 4.7h-3.486v14.068h2.274V7.942h.078l4.363 10.827h1.717l4.295-10.826h.078z" fill="#FFF"/><path d="M11 11H0V0h11v11z" fill="#F1511B"/><path d="M23 11H12V0h11v11z" fill="#80CC28"/><path d="M11 23H0V12h11v11z" fill="#00ADEF"/><path d="M23 23H12V12h11v11z" fill="#FBBC09"/></g></svg>