<svg xmlns="http://www.w3.org/2000/svg" width="148" height="34"><g fill="#fff" color="#000"><path d="M11.017 1a2.862 2.862 0 0 0-2.416 1.395L.979 15.605a2.868 2.868 0 0 0 0 2.79L8.6 31.605A2.86 2.86 0 0 0 11.017 33h15.244a2.862 2.862 0 0 0 2.417-1.395l7.622-13.21a2.868 2.868 0 0 0 0-2.79l-7.622-13.21A2.86 2.86 0 0 0 26.26 1H11.017zm.139 7.729a.304.304 0 0 1 .064 0h2.629c.116.002.23.069.287.17l4.46 7.93c.023.04.038.084.043.128a.34.34 0 0 1 .043-.127l4.45-7.931a.348.348 0 0 1 .297-.17h2.63c.233.002.407.294.298.5L22.003 17l4.354 7.76c.12.207-.06.513-.298.511h-2.63a.348.348 0 0 1-.298-.18l-4.45-7.931a.341.341 0 0 1-.042-.128.34.34 0 0 1-.042.128l-4.46 7.93a.348.348 0 0 1-.288.181h-2.63c-.238.003-.417-.304-.298-.51L15.275 17l-4.354-7.771c-.104-.188.023-.46.235-.5z" style="text-indent:0;text-align:start;line-height:normal;text-transform:none;block-progression:tb;marker:none;-inkscape-font-specification:Sans" font-weight="400" overflow="visible" font-family="Sans"/><g style="marker:none" stroke-width="21.257" overflow="visible" font-size="29.578" font-weight="600" letter-spacing="-.954" word-spacing="0" font-family="Segoe Semibold"><path d="M57.759 27.045l-3.85-7.375-3.936 7.375H45.74l6.002-9.518-5.401-9.459h4.291l3.505 7.187 3.797-7.187h3.926l-5.548 9.4 5.636 9.577h-4.19M71.483 27.045v-2.066h-.059c-1.045 1.621-2.524 2.432-4.438 2.432-1.474 0-2.636-.4-3.486-1.201-.85-.81-1.274-1.895-1.274-3.252 0-2.91 1.635-4.565 4.907-4.966l4.38-.6c0-2.041-.948-3.062-2.842-3.062-1.807 0-3.467.557-4.98 1.67v-2.988c.566-.342 1.376-.65 2.43-.923 1.065-.273 2.032-.41 2.901-.41 3.867 0 5.8 1.953 5.8 5.86v9.506h-3.34m-3.207-6.87c-1.006.127-1.714.376-2.124.747-.4.361-.6.923-.6 1.684 0 .625.23 1.138.688 1.538.459.391 1.06.586 1.802.586 1.006 0 1.836-.346 2.49-1.04.654-.693.981-1.557.981-2.592V19.75l-3.237.425M96.419 27.045v-8.467c0-1.396-.22-2.431-.66-3.105-.429-.684-1.2-1.025-2.314-1.025-.888 0-1.635.41-2.24 1.23-.606.81-.909 1.792-.909 2.944v8.423h-3.383v-8.76c0-2.558-.982-3.837-2.945-3.837-.917 0-1.674.385-2.27 1.157-.586.771-.879 1.777-.879 3.017v8.423h-3.383v-15h3.383v2.315h.059c1.084-1.787 2.666-2.68 4.746-2.68.996 0 1.874.263 2.636.79.772.518 1.314 1.236 1.626 2.153 1.143-1.962 2.822-2.944 5.039-2.944 3.261 0 4.892 2.031 4.892 6.094v9.272H96.42M111.066 27.045v-2.066h-.059c-1.045 1.621-2.524 2.432-4.438 2.432-1.474 0-2.637-.4-3.486-1.201-.85-.81-1.274-1.895-1.274-3.252 0-2.91 1.635-4.565 4.907-4.966l4.38-.6c0-2.041-.948-3.062-2.842-3.062-1.807 0-3.467.557-4.98 1.67v-2.988c.566-.342 1.376-.65 2.43-.923 1.065-.273 2.032-.41 2.901-.41 3.867 0 5.8 1.953 5.8 5.86v9.506h-3.34m-3.207-6.87c-1.006.127-1.714.376-2.124.747-.4.361-.6.923-.6 1.684 0 .625.23 1.138.688 1.538.459.391 1.06.586 1.802.586 1.005 0 1.836-.346 2.49-1.04.654-.693.981-1.557.981-2.592V19.75l-3.237.425M125.74 15.341c-.557-.342-1.211-.513-1.963-.513-.977 0-1.773.42-2.388 1.26-.605.84-.908 1.934-.908 3.281v7.676h-3.383v-15h3.383v2.915h.059c.722-2.119 2.002-3.178 3.837-3.178.596 0 1.05.068 1.363.205v3.354M129.108 8.691c-.576 0-1.064-.185-1.465-.556-.4-.381-.6-.845-.6-1.392 0-.566.2-1.04.6-1.42.4-.382.889-.572 1.465-.572.586 0 1.079.195 1.48.586.4.38.6.85.6 1.406 0 .547-.2 1.01-.6 1.392-.401.37-.894.556-1.48.556m-1.728 18.354v-15h3.383v15h-3.383M143.551 27.045v-8.423c0-2.783-1-4.174-3.003-4.174-1.005 0-1.85.385-2.534 1.157-.673.761-1.01 1.733-1.01 2.915v8.525h-3.384v-15h3.384v2.403h.058c1.094-1.846 2.715-2.769 4.863-2.769 3.34 0 5.01 2.05 5.01 6.152v9.214h-3.384" style="text-align:start;line-height:125%;marker:none;-inkscape-font-specification:'Segoe Semibold, Semi-Bold'" overflow="visible"/></g><path style="marker:none" fill="none" overflow="visible" d="M0 0h148v34H0z"/></g></svg>