<svg width="75" height="69" viewBox="0 0 75 69" xmlns="http://www.w3.org/2000/svg"><title>Group</title><g fill="none" fill-rule="evenodd"><path opacity=".9" fill="#ECF0F1" d="M-415-213h1600v449H-415z"/><path d="M21.64 0c-2.025.005-4.008 1.152-5.028 2.902L.752 30.39c-1.003 1.755-1.003 4.049 0 5.803l15.86 27.489c1.02 1.75 3.003 2.897 5.029 2.901H53.36c2.025-.004 4.008-1.151 5.028-2.901l15.86-27.489c1.003-1.754 1.003-4.048 0-5.803L58.387 2.902C57.368 1.152 55.385.004 53.36 0H21.64zm.288 16.081a.63.63 0 0 1 .133 0h5.471a.72.72 0 0 1 .598.354l9.281 16.502a.71.71 0 0 1 .089.266.71.71 0 0 1 .088-.266l9.259-16.502a.724.724 0 0 1 .62-.354h5.47c.485.005.848.613.621 1.041l-9.06 16.17 9.06 16.147c.249.43-.123 1.068-.62 1.063h-5.471a.724.724 0 0 1-.62-.376l-9.26-16.502a.71.71 0 0 1-.087-.266.71.71 0 0 1-.089.266l-9.28 16.502a.723.723 0 0 1-.599.376h-5.47c-.498.005-.87-.632-.62-1.063L30.5 33.292l-9.06-16.17c-.217-.39.048-.958.487-1.041z" fill="#1FAECE"/></g></svg>