<svg width="69" height="69" viewBox="0 0 69 69" xmlns="http://www.w3.org/2000/svg"><title>Group</title><g fill="none" fill-rule="evenodd"><path opacity=".9" fill="#ECF0F1" d="M-1108-213H492v449h-1600z"/><path d="M23.737 0c-1.37.004-2.736.758-3.425 1.917L9.61 20.133a3.647 3.647 0 0 0-.49 1.498c-.017.082.001 1.174.123 1.558.676 4.238 2.034 9.742 4.586 15.28 0 0 4.26 8.69 8.318 12.283 3.269 3.33 7.308 6.22 12.353 8.388 5.046-2.169 9.147-5.059 12.415-8.388 4.058-3.593 8.318-12.284 8.318-12.284 2.552-5.537 3.848-11.04 4.525-15.28.12-.383.133-1.475.123-1.557a3.66 3.66 0 0 0-.49-1.498L48.69 1.917C47.999.757 46.634.003 45.264 0H23.737zm-.122 15.16a.652.652 0 0 1 .122 0h3.792a.537.537 0 0 1 .428.24l6.482 11.264c.032.06.05.119.061.18 0-.061.033-.12.061-.18L41.044 15.4a.498.498 0 0 1 .428-.24h3.792c.338.004.59.429.428.72l-6.3 11.025 6.3 11.085c.177.294-.078.726-.428.719h-3.792c-.177-.001-.346-.144-.428-.3l-6.483-11.265a.498.498 0 0 1-.06-.18c-.018.068-.03.127-.062.18l-6.482 11.265c-.081.151-.261.295-.428.3h-3.792c-.35.007-.603-.425-.428-.72l6.299-11.084-6.3-11.025c-.152-.266-.005-.66.307-.72zM1.965 26.844c-.092.047-.143.087-.183.18L.803 29.24c-.06.14-.095.297 0 .42l1.101 1.438a.587.587 0 0 0 0 .24c.1.657.242 1.28.367 1.917l-1.896-.54c-.099-.029-.209.018-.306.06a.42.42 0 0 0-.06.3l.61 2.277c.04.15.16.258.307.3l2.018.599a42.1 42.1 0 0 0 .917 2.996l-1.896-.24a.322.322 0 0 0-.244.06.497.497 0 0 0 0 .3l.917 2.157c.063.14.214.282.367.3l1.957.239c.403.94.83 1.874 1.284 2.756H4.35c-.104-.004-.224-.004-.305.06a.518.518 0 0 0 .06.3l1.163 2.097a.563.563 0 0 0 .428.24h2.018c.498.822 1.055 1.568 1.59 2.336l-1.957.18a.594.594 0 0 0-.306.18c0 .102 0 .156.061.24l1.468 1.917a.497.497 0 0 0 .428.18l2.14-.24a47.583 47.583 0 0 0 1.958 2.277l-1.896.48c-.1.026-.244.096-.306.179.018.099.052.227.122.3l1.774 1.677c.109.107.276.16.428.12l1.957-.54c.773.753 1.603 1.424 2.385 2.098l-1.774.54a.44.44 0 0 0-.244.179c.017.102.048.233.122.3l1.835 1.557c.118.1.282.166.428.12l2.14-.659c.915.698 1.807 1.38 2.691 1.977l-1.712.9a.434.434 0 0 0-.183.239.459.459 0 0 0 .183.24l2.08 1.258a.43.43 0 0 0 .427 0l1.774-.959c1.19.715 2.342 1.271 3.364 1.798l-1.652 1.078a.46.46 0 0 0-.183.24.547.547 0 0 0 .245.24l2.201 1.018c.138.067.302.03.428-.06l1.713-1.198c1.534.678 2.557 1.093 2.69 1.138.018.004.123.06.123.06a.623.623 0 0 0 .49 0s.11-.056.121-.06c.134-.045 1.157-.46 2.691-1.138l1.713 1.198c.127.09.29.127.428.06l2.202-1.018a.543.543 0 0 0 .244-.24.46.46 0 0 0-.183-.24l-1.652-1.077c1.022-.527 2.174-1.083 3.364-1.798l1.774.959a.43.43 0 0 0 .428 0l2.079-1.259a.451.451 0 0 0 .183-.24.433.433 0 0 0-.183-.239l-1.712-.899c.884-.596 1.776-1.28 2.69-1.977l2.141.659c.146.046.311-.02.428-.12l1.835-1.558c.074-.066.106-.197.122-.3a.439.439 0 0 0-.245-.179l-1.773-.54c.781-.673 1.612-1.344 2.385-2.096l1.957.539a.455.455 0 0 0 .428-.12l1.774-1.678c.07-.072.111-.2.122-.3-.062-.082-.205-.152-.306-.18l-1.896-.478c.665-.731 1.32-1.481 1.957-2.277l2.14.24a.498.498 0 0 0 .429-.18l1.468-1.918a.313.313 0 0 0 .06-.24c-.07-.076-.198-.166-.305-.18l-1.957-.179c.535-.768 1.091-1.514 1.59-2.337h2.018a.564.564 0 0 0 .428-.24l1.162-2.097c.053-.09.08-.2.061-.3-.08-.063-.203-.062-.305-.059h-1.896c.453-.882.881-1.816 1.284-2.756l1.957-.24c.153-.017.304-.16.367-.3l.917-2.157a.497.497 0 0 0 0-.3.318.318 0 0 0-.244-.059l-1.896.24c.342-.986.638-1.953.917-2.996l2.018-.6a.428.428 0 0 0 .306-.3l.612-2.276c.024-.1-.018-.21-.061-.3-.095-.043-.207-.089-.306-.06l-1.896.54c.125-.637.267-1.26.367-1.918.01-.06.01-.12 0-.18a.587.587 0 0 0 0-.06l1.1-1.437c.094-.123.059-.28 0-.42l-.978-2.217c-.04-.092-.092-.132-.183-.18-.102.027-.183.039-.245.12l-1.468 2.397.673 1.498a.587.587 0 0 0 0 .06.595.595 0 0 0-.122.24c-.095.635-.186 1.242-.306 1.857l-1.406-1.198c-.082-.065-.206-.058-.306-.06-.083.066-.105.138-.123.24l-.428 2.337c-.026.148 0 .322.123.42l1.467 1.197c-.256.96-.605 1.847-.917 2.757l-1.284-1.378c-.069-.077-.143-.164-.245-.18a.424.424 0 0 0-.183.24l-.795 2.277c-.046.14-.045.305.06.419l1.346 1.498c-.402.941-.769 1.874-1.223 2.756l-1.1-1.677a.435.435 0 0 0-.245-.18c-.094.036-.197.088-.245.18l-1.1 2.097c-.071.136-.084.352 0 .48l1.161 1.737c-.463.76-.911 1.504-1.406 2.217l-.979-1.858c-.051-.09-.148-.14-.245-.18a.44.44 0 0 0-.244.18l-1.284 2.038a.42.42 0 0 0 0 .419l.978 1.798c-.61.763-1.26 1.454-1.896 2.157l-.673-1.798c-.038-.097-.156-.19-.244-.24-.104.021-.178.045-.245.12l-1.529 1.857a.415.415 0 0 0-.06.42l.672 1.797c-.764.745-1.49 1.49-2.263 2.157l-.428-1.738a.457.457 0 0 0-.183-.24.54.54 0 0 0-.306.12l-1.774 1.618a.434.434 0 0 0-.122.42l.428 1.737c-.901.69-1.82 1.328-2.69 1.918l-.062-1.678c0-.102 0-.165-.061-.24a.508.508 0 0 0-.306.06l-2.08 1.258a.384.384 0 0 0-.183.36l.062 1.917a55.36 55.36 0 0 1-3.12 1.738l.184-1.678a.505.505 0 0 0-.061-.3c-.102-.027-.21.02-.306.06l-2.202.9c-.142.058-.229.209-.244.359l-.245 2.037a42.604 42.604 0 0 1-2.507 1.019 42.62 42.62 0 0 1-2.508-1.02l-.244-2.036c-.018-.15-.102-.301-.245-.36l-2.202-.899c-.095-.04-.203-.087-.305-.06a.453.453 0 0 0-.061.3l.183 1.678A55.36 55.36 0 0 1 26 63.574l.061-1.917c0-.15-.055-.28-.183-.36l-2.08-1.258a.502.502 0 0 0-.305-.06c-.067.075-.062.138-.062.24l-.06 1.678a55.867 55.867 0 0 1-2.691-1.918l.428-1.738a.45.45 0 0 0-.123-.419l-1.773-1.618a.538.538 0 0 0-.306-.12.458.458 0 0 0-.183.24l-.429 1.738c-.772-.667-1.499-1.412-2.262-2.157l.672-1.798a.419.419 0 0 0-.06-.42l-1.53-1.857c-.066-.075-.14-.099-.244-.12-.09.05-.206.143-.245.24l-.673 1.798c-.635-.703-1.286-1.394-1.895-2.158l.978-1.797c.069-.133.083-.29 0-.42l-1.284-2.037a.436.436 0 0 0-.245-.18c-.097.04-.193.09-.244.18l-.979 1.858c-.495-.713-.944-1.457-1.407-2.217l1.162-1.738c.083-.127.072-.343 0-.48l-1.101-2.097c-.048-.09-.15-.144-.245-.18a.442.442 0 0 0-.244.18L7.347 44.34c-.454-.882-.822-1.815-1.223-2.756l1.345-1.498c.106-.114.107-.278.061-.42l-.795-2.276a.431.431 0 0 0-.183-.24c-.102.015-.176.103-.245.18l-1.284 1.378c-.312-.91-.66-1.796-.917-2.757l1.467-1.198c.115-.097.149-.271.123-.42l-.429-2.336c-.017-.102-.039-.174-.122-.24-.1.002-.225-.006-.306.06l-1.406 1.198c-.12-.615-.21-1.222-.306-1.857a.595.595 0 0 0-.122-.24l.672-1.558-1.467-2.397c-.062-.082-.143-.093-.245-.12z" fill="#E7963B"/></g></svg>