<?xml version="1.0" encoding="UTF-8" standalone="no"?>
<!-- Created with Inkscape (http://www.inkscape.org/) -->

<svg
   xmlns:dc="http://purl.org/dc/elements/1.1/"
   xmlns:cc="http://creativecommons.org/ns#"
   xmlns:rdf="http://www.w3.org/1999/02/22-rdf-syntax-ns#"
   xmlns:svg="http://www.w3.org/2000/svg"
   xmlns="http://www.w3.org/2000/svg"
   xmlns:sodipodi="http://sodipodi.sourceforge.net/DTD/sodipodi-0.dtd"
   xmlns:inkscape="http://www.inkscape.org/namespaces/inkscape"
   version="1.1"
   width="40"
   height="230"
   id="svg21146"
   inkscape:version="0.48.2 r9819"
   sodipodi:docname="products-icons.svg">
  <sodipodi:namedview
     pagecolor="#ffffff"
     bordercolor="#666666"
     borderopacity="1"
     objecttolerance="10"
     gridtolerance="10"
     guidetolerance="10"
     inkscape:pageopacity="0"
     inkscape:pageshadow="2"
     inkscape:window-width="2560"
     inkscape:window-height="1392"
     id="namedview23"
     showgrid="false"
     inkscape:snap-global="true"
     fit-margin-top="0"
     fit-margin-left="0"
     fit-margin-right="0"
     fit-margin-bottom="0"
     inkscape:zoom="18.160476"
     inkscape:cx="17.545528"
     inkscape:cy="108.35133"
     inkscape:window-x="0"
     inkscape:window-y="0"
     inkscape:window-maximized="1"
     inkscape:current-layer="svg21146">
    <inkscape:grid
       type="xygrid"
       id="grid3017"
       empspacing="5"
       visible="true"
       enabled="true"
       snapvisiblegridlinesonly="true" />
  </sodipodi:namedview>
  <defs
     id="defs21148" />
  <metadata
     id="metadata21151">
    <rdf:RDF>
      <cc:Work
         rdf:about="">
        <dc:format>image/svg+xml</dc:format>
        <dc:type
           rdf:resource="http://purl.org/dc/dcmitype/StillImage" />
        <dc:title />
      </cc:Work>
    </rdf:RDF>
  </metadata>
  <g
     transform="translate(-260,-247.36218)"
     id="layer1">
    <rect
       width="40"
       height="40"
       x="260"
       y="247.36218"
       id="rect20462"
       style="color:#000000;fill:none;stroke:none;stroke-width:0.99999994;marker:none;visibility:visible;display:inline;overflow:visible;enable-background:accumulate" />
    <path
       d="m 271.52921,249.36218 c -1.08049,0.002 -2.11295,0.61624 -2.65689,1.5625 l -8.47079,14.84375 c -0.53537,0.94879 -0.53537,2.20746 0,3.15625 l 8.47079,14.84375 c 0.54394,0.94627 1.5764,1.59161 2.65689,1.59375 l 16.94158,0 c 1.08049,-0.002 2.11295,-0.64748 2.65689,-1.59375 l 8.47079,-14.84375 c 0.53537,-0.94879 0.53537,-2.20746 0,-3.15625 l -8.47079,-14.84375 c -0.54394,-0.94626 -1.5764,-1.56035 -2.65689,-1.5625 l -16.94158,0 z m 0.15629,9.1875 c 0.0227,-0.002 0.0711,-0.002 0.0937,0 l 2.90695,0 c 0.12925,0.002 0.24795,0.0804 0.31257,0.1875 l 4.93869,8.4375 c 0.0247,0.0417 0.0556,0.0774 0.0625,0.125 0.0118,-0.0476 0.0369,-0.0833 0.0625,-0.125 l 4.93869,-8.4375 c 0.0671,-0.11035 0.17957,-0.18861 0.31257,-0.1875 l 2.90695,0 c 0.2585,0.002 0.46499,0.31271 0.34383,0.53125 l -4.84491,8.28125 4.84491,8.21875 c 0.13271,0.21978 -0.0791,0.56468 -0.34383,0.5625 l -2.90695,0 c -0.13527,-9.4e-4 -0.24904,-0.073 -0.31257,-0.1875 l -4.93869,-8.4375 c -0.0237,-0.0416 -0.0557,-0.0774 -0.0625,-0.125 -0.0118,0.0476 -0.0369,0.0833 -0.0625,0.125 l -4.93869,8.4375 c -0.0631,0.11129 -0.18115,0.18244 -0.31257,0.1875 l -2.90695,0 c -0.26532,0.002 -0.47625,-0.34272 -0.34383,-0.5625 l 4.84491,-8.21875 -4.84491,-8.28125 c -0.11574,-0.19938 0.0147,-0.48871 0.25006,-0.53125 z"
       id="path21289"
       style="font-size:medium;font-style:normal;font-variant:normal;font-weight:normal;font-stretch:normal;text-indent:0;text-align:start;text-decoration:none;line-height:normal;letter-spacing:normal;word-spacing:normal;text-transform:none;direction:ltr;block-progression:tb;writing-mode:lr-tb;text-anchor:start;baseline-shift:baseline;color:#000000;fill:#3498db;fill-opacity:1;fill-rule:nonzero;stroke:none;stroke-width:26.6999073;marker:none;visibility:visible;display:inline;overflow:visible;enable-background:accumulate;font-family:Sans;-inkscape-font-specification:Sans"
       inkscape:connector-curvature="0" />
    <rect
       width="40"
       height="40"
       x="260"
       y="297.36218"
       id="rect20464"
       style="color:#000000;fill:none;stroke:none;stroke-width:0.99999994;marker:none;visibility:visible;display:inline;overflow:visible;enable-background:accumulate" />
    <rect
       width="40"
       height="40"
       x="260"
       y="347.36218"
       id="rect20466"
       style="color:#000000;fill:none;stroke:none;stroke-width:0.99999994;marker:none;visibility:visible;display:inline;overflow:visible;enable-background:accumulate" />
    <path
       d="m 282.875,299.09375 c -4.19816,0 -7.80446,2.44843 -9.5,6 -0.82222,-0.63772 -1.84735,-1.03125 -2.96875,-1.03125 -2.68528,0 -4.84375,2.18972 -4.84375,4.875 0,0.50485 0.0753,1.01109 0.21875,1.46875 -2.09336,1.2449 -3.5,3.48098 -3.5,6.09375 0,3.90606 3.13905,7.1269 7.03125,7.1875 l 1.625,0 c -0.0121,-0.46279 0.16376,-0.93194 0.5,-1.25 l 14.8125,-13.75 c 0.29682,-0.2787 0.68661,-0.43014 1.09375,-0.4375 1.17492,-0.0357 2.08812,1.48224 1.5,2.5 l -4.75,8.34375 1.96875,0 0.21875,0 c 0.86895,1.2e-4 1.65613,0.81855 1.65625,1.6875 0,0.45127 -0.20358,0.87727 -0.53125,1.1875 -0.0224,0.0236 -0.0386,0.0722 -0.0625,0.0937 l -0.0312,0.0312 c -0.0334,0.0236 -0.0582,0.0409 -0.0937,0.0625 l -1.625,1.5 5.15625,0 c 3.85375,0 6.96875,-3.11488 6.96875,-6.96875 0,-2.9051 -1.78875,-5.38699 -4.3125,-6.4375 0.0121,-0.21062 0.0312,-0.41197 0.0312,-0.625 0,-5.8216 -4.7405,-10.53125 -10.5625,-10.53125 z m 4.5,10.84375 -14.8125,13.71875 5.0625,0 -7.28125,11.96875 15.9375,-14.84375 -5.0625,0 6.15625,-10.84375 z"
       id="path100525"
       style="fill:#3498db;fill-opacity:1;fill-rule:nonzero;stroke:none"
       inkscape:connector-curvature="0" />
    <rect
       width="24"
       height="24"
       x="260"
       y="453.36218"
       id="rect20997"
       style="color:#000000;fill:none;stroke:none;stroke-width:0.99999994;marker:none;visibility:visible;display:inline;overflow:visible;enable-background:accumulate" />
    <rect
       width="5"
       height="5"
       x="262"
       y="462.36218"
       id="rect20999"
       style="color:#000000;fill:#95a5a6;fill-opacity:1;fill-rule:nonzero;stroke:none;stroke-width:0.99999994;marker:none;visibility:visible;display:inline;overflow:visible;enable-background:accumulate" />
    <rect
       width="5"
       height="5"
       x="269"
       y="455.36218"
       id="rect21001"
       style="color:#000000;fill:#95a5a6;fill-opacity:1;fill-rule:nonzero;stroke:none;stroke-width:0.99999994;marker:none;visibility:visible;display:inline;overflow:visible;enable-background:accumulate" />
    <rect
       width="5"
       height="5"
       x="269"
       y="462.36218"
       id="rect21003"
       style="color:#000000;fill:#95a5a6;fill-opacity:1;fill-rule:nonzero;stroke:none;stroke-width:0.99999994;marker:none;visibility:visible;display:inline;overflow:visible;enable-background:accumulate" />
    <rect
       width="5"
       height="5"
       x="262"
       y="455.36218"
       id="rect21005"
       style="color:#000000;fill:#95a5a6;fill-opacity:1;fill-rule:nonzero;stroke:none;stroke-width:0.99999994;marker:none;visibility:visible;display:inline;overflow:visible;enable-background:accumulate" />
    <rect
       width="5"
       height="5"
       x="276"
       y="455.36218"
       id="rect21007"
       style="color:#000000;fill:#95a5a6;fill-opacity:1;fill-rule:nonzero;stroke:none;stroke-width:0.99999994;marker:none;visibility:visible;display:inline;overflow:visible;enable-background:accumulate" />
    <rect
       width="5"
       height="5"
       x="276"
       y="462.36218"
       id="rect21009"
       style="color:#000000;fill:#95a5a6;fill-opacity:1;fill-rule:nonzero;stroke:none;stroke-width:0.99999994;marker:none;visibility:visible;display:inline;overflow:visible;enable-background:accumulate" />
    <rect
       width="5"
       height="5"
       x="262"
       y="469.36218"
       id="rect21011"
       style="color:#000000;fill:#95a5a6;fill-opacity:1;fill-rule:nonzero;stroke:none;stroke-width:0.99999994;marker:none;visibility:visible;display:inline;overflow:visible;enable-background:accumulate" />
    <rect
       width="5"
       height="5"
       x="269"
       y="469.36218"
       id="rect21013"
       style="color:#000000;fill:#95a5a6;fill-opacity:1;fill-rule:nonzero;stroke:none;stroke-width:0.99999994;marker:none;visibility:visible;display:inline;overflow:visible;enable-background:accumulate" />
    <rect
       width="5"
       height="5"
       x="276"
       y="469.36218"
       id="rect21015"
       style="color:#000000;fill:#95a5a6;fill-opacity:1;fill-rule:nonzero;stroke:none;stroke-width:0.99999994;marker:none;visibility:visible;display:inline;overflow:visible;enable-background:accumulate" />
    <rect
       style="color:#000000;fill:none;stroke:none;stroke-width:0.99999994;marker:none;visibility:visible;display:inline;overflow:visible;enable-background:accumulate"
       id="rect3019"
       y="397.36218"
       x="260"
       height="40"
       width="40" />
    <g
       style="fill:#3498db"
       id="g3021"
       transform="matrix(0.89999939,0,0,0.89999939,-1261.699,131.23644)">
      <path
         style="font-size:medium;font-style:normal;font-variant:normal;font-weight:normal;font-stretch:normal;text-indent:0;text-align:start;text-decoration:none;line-height:normal;letter-spacing:normal;word-spacing:normal;text-transform:none;direction:ltr;block-progression:tb;writing-mode:lr-tb;text-anchor:start;baseline-shift:baseline;color:#000000;fill:#3498db;fill-opacity:1;stroke:none;stroke-width:0.69444484;marker:none;visibility:visible;display:inline;overflow:visible;enable-background:accumulate;font-family:Sans;-inkscape-font-specification:Sans"
         id="path3023"
         transform="matrix(1.1111119,0,0,1.1111119,1401.8887,-90.262776)"
         d="m 274.5,349.375 c -0.70029,0.002 -1.39774,0.39516 -1.75,1 l -5.46875,9.5 c -0.1395,0.24319 -0.22246,0.50207 -0.25,0.78125 -0.009,0.0428 4e-4,0.6124 0.0625,0.8125 0.34578,2.2105 1.03965,5.08114 2.34375,7.96875 0,0 2.17667,4.53276 4.25,6.40625 1.67031,1.73659 3.73436,3.24382 6.3125,4.375 2.57814,-1.13118 4.6738,-2.63841 6.34375,-4.375 2.07333,-1.87349 4.25,-6.40625 4.25,-6.40625 1.30437,-2.88761 1.96636,-5.75825 2.3125,-7.96875 0.0612,-0.2001 0.0679,-0.7697 0.0625,-0.8125 -0.0279,-0.27918 -0.11059,-0.53806 -0.25,-0.78125 l -5.46875,-9.5 c -0.35226,-0.60484 -1.04989,-0.99858 -1.75,-1 l -5.5,0 -5.5,0 z m -0.0625,7.90625 c 0.0144,-0.002 0.0481,-0.002 0.0625,0 l 1.9375,0 c 0.0855,0.002 0.176,0.053 0.21875,0.125 l 3.3125,5.875 c 0.0162,0.0309 0.0258,0.062 0.0312,0.0937 0,-0.0318 0.0168,-0.0629 0.0312,-0.0937 l 3.3125,-5.875 c 0.0423,-0.0754 0.12812,-0.125 0.21875,-0.125 l 1.9375,0 c 0.17289,0.002 0.30155,0.22337 0.21875,0.375 l -3.21875,5.75 3.21875,5.78125 c 0.0904,0.15362 -0.0399,0.37897 -0.21875,0.375 l -1.9375,0 c -0.0906,-5.7e-4 -0.17708,-0.0752 -0.21875,-0.15625 l -3.3125,-5.875 c -0.0144,-0.0281 -0.0276,-0.0586 -0.0312,-0.0937 -0.009,0.0351 -0.015,0.0657 -0.0312,0.0937 l -3.3125,5.875 c -0.0414,0.0788 -0.13343,0.15398 -0.21875,0.15625 l -1.9375,0 c -0.17829,0.004 -0.3083,-0.22138 -0.21875,-0.375 l 3.21875,-5.78125 -3.21875,-5.75 c -0.0783,-0.13831 -0.003,-0.34439 0.15625,-0.375 z M 263.375,363.375 c -0.0468,0.0247 -0.0729,0.0456 -0.0937,0.0937 l -0.5,1.15625 c -0.0306,0.0725 -0.0486,0.1544 0,0.21875 l 0.5625,0.75 a 0.31253122,0.31253122 0 0 0 0,0.125 c 0.0513,0.34283 0.12378,0.66779 0.1875,1 l -0.96875,-0.28125 c -0.0504,-0.0153 -0.10675,0.009 -0.15625,0.0312 -0.0261,0.0464 -0.0439,0.10378 -0.0312,0.15625 l 0.3125,1.1875 c 0.0198,0.0779 0.081,0.13447 0.15625,0.15625 l 1.03125,0.3125 c 0.14265,0.54435 0.2937,1.04865 0.46875,1.5625 l -0.96875,-0.125 c -0.054,-0.006 -0.081,0.003 -0.125,0.0312 -0.0126,0.0499 -0.0189,0.10639 0,0.15625 l 0.46875,1.125 c 0.0324,0.0732 0.1092,0.14725 0.1875,0.15625 l 1,0.125 c 0.20574,0.49014 0.42441,0.97725 0.65625,1.4375 l -0.96875,0 c -0.0531,-0.002 -0.11485,-0.002 -0.15625,0.0312 -0.009,0.0516 0.009,0.10918 0.0312,0.15625 l 0.59375,1.09375 c 0.0396,0.0689 0.13955,0.1232 0.21875,0.125 l 1.03125,0 c 0.2547,0.42906 0.5389,0.81811 0.8125,1.21875 l -1,0.0937 c -0.054,0.007 -0.12025,0.0538 -0.15625,0.0937 0,0.0533 -2.5e-4,0.0814 0.0312,0.125 l 0.75,1 c 0.0468,0.0634 0.13955,0.10311 0.21875,0.0937 l 1.09375,-0.125 c 0.3258,0.41514 0.66025,0.80633 1,1.1875 l -0.96875,0.25 c -0.0513,0.0142 -0.12475,0.0507 -0.15625,0.0937 0.009,0.0516 0.0265,0.11854 0.0625,0.15625 l 0.90625,0.875 c 0.0558,0.056 0.14135,0.0837 0.21875,0.0625 l 1,-0.28125 c 0.39483,0.39228 0.81933,0.74239 1.21875,1.09375 l -0.90625,0.28125 c -0.0513,0.015 -0.0953,0.0482 -0.125,0.0937 0.009,0.0533 0.0247,0.12169 0.0625,0.15625 l 0.9375,0.8125 c 0.0603,0.0519 0.14405,0.0866 0.21875,0.0625 l 1.09375,-0.34375 c 0.46719,0.36397 0.92329,0.72008 1.375,1.03125 l -0.875,0.46875 c -0.0477,0.0269 -0.0757,0.0757 -0.0937,0.125 0.0171,0.0505 0.0496,0.0969 0.0937,0.125 l 1.0625,0.65625 c 0.0693,0.0418 0.14945,0.0377 0.21875,0 l 0.90625,-0.5 c 0.60777,0.37288 1.19693,0.66289 1.71875,0.9375 l -0.84375,0.5625 c -0.0441,0.0311 -0.0793,0.0754 -0.0937,0.125 0.0225,0.0497 0.0757,0.10205 0.125,0.125 l 1.125,0.53125 c 0.0702,0.0346 0.15395,0.0152 0.21875,-0.0312 l 0.875,-0.625 c 0.78417,0.35338 1.30687,0.57021 1.375,0.59375 0.009,0.002 0.0625,0.0312 0.0625,0.0312 a 0.31253122,0.31253122 0 0 0 0.25,0 c 0,0 0.0562,-0.0294 0.0625,-0.0312 0.0684,-0.0236 0.59092,-0.24037 1.375,-0.59375 l 0.875,0.625 c 0.0648,0.0464 0.14792,0.0658 0.21875,0.0312 l 1.125,-0.53125 c 0.0495,-0.0229 0.10268,-0.0753 0.125,-0.125 -0.0144,-0.0496 -0.0495,-0.0938 -0.0937,-0.125 L 282.96875,384 c 0.52191,-0.27461 1.11089,-0.56462 1.71875,-0.9375 l 0.90625,0.5 c 0.0684,0.0377 0.14927,0.0418 0.21875,0 l 1.0625,-0.65625 c 0.045,-0.0281 0.0765,-0.0745 0.0937,-0.125 -0.018,-0.0493 -0.0459,-0.0981 -0.0937,-0.125 L 286,382.1875 c 0.45171,-0.31117 0.90781,-0.66728 1.375,-1.03125 l 1.09375,0.34375 c 0.0747,0.0241 0.15899,-0.0106 0.21875,-0.0625 l 0.9375,-0.8125 c 0.0378,-0.0346 0.0544,-0.10293 0.0625,-0.15625 -0.0297,-0.0456 -0.0738,-0.0787 -0.125,-0.0937 l -0.90625,-0.28125 c 0.39933,-0.35136 0.82392,-0.70147 1.21875,-1.09375 l 1,0.28125 c 0.0774,0.0212 0.16286,-0.006 0.21875,-0.0625 L 292,378.34375 c 0.036,-0.0377 0.0571,-0.10467 0.0625,-0.15625 -0.0315,-0.0431 -0.10486,-0.0796 -0.15625,-0.0937 l -0.96875,-0.25 c 0.33984,-0.38117 0.67429,-0.77236 1,-1.1875 l 1.09375,0.125 c 0.0801,0.009 0.17168,-0.0303 0.21875,-0.0937 l 0.75,-1 c 0.0297,-0.0437 0.0349,-0.0717 0.0312,-0.125 -0.036,-0.04 -0.10171,-0.087 -0.15625,-0.0937 l -1,-0.0937 c 0.27351,-0.40064 0.55771,-0.78969 0.8125,-1.21875 l 1.03125,0 c 0.0792,-0.002 0.17906,-0.0561 0.21875,-0.125 l 0.59375,-1.09375 c 0.027,-0.0471 0.0403,-0.10465 0.0312,-0.15625 -0.0414,-0.0335 -0.10387,-0.033 -0.15625,-0.0312 l -0.96875,0 c 0.23184,-0.46025 0.45051,-0.94736 0.65625,-1.4375 l 1,-0.125 c 0.0783,-0.009 0.15555,-0.0831 0.1875,-0.15625 l 0.46875,-1.125 c 0.0189,-0.0499 0.0126,-0.10637 0,-0.15625 -0.0432,-0.0283 -0.0711,-0.0375 -0.125,-0.0312 l -0.96875,0.125 c 0.17496,-0.51385 0.3261,-1.01815 0.46875,-1.5625 l 1.03125,-0.3125 c 0.0756,-0.0218 0.13618,-0.0783 0.15625,-0.15625 l 0.3125,-1.1875 c 0.0126,-0.0525 -0.009,-0.10977 -0.0312,-0.15625 -0.0486,-0.0224 -0.10549,-0.0466 -0.15625,-0.0312 l -0.96875,0.28125 c 0.0639,-0.33221 0.13665,-0.65717 0.1875,-1 a 0.31253122,0.31253122 0 0 0 0,-0.0937 0.31253122,0.31253122 0 0 0 0,-0.0312 l 0.5625,-0.75 c 0.0477,-0.0643 0.0297,-0.14619 0,-0.21875 l -0.5,-1.15625 c -0.0207,-0.0482 -0.0469,-0.0691 -0.0937,-0.0937 -0.0522,0.0136 -0.0935,0.0197 -0.125,0.0625 l -0.75,1.25 0.34375,0.78125 a 0.31253122,0.31253122 0 0 0 0,0.0312 0.31253122,0.31253122 0 0 0 -0.0625,0.125 c -0.0486,0.33104 -0.0948,0.64789 -0.15625,0.96875 l -0.71875,-0.625 c -0.0414,-0.0337 -0.10495,-0.0304 -0.15625,-0.0312 -0.0423,0.0346 -0.0535,0.072 -0.0625,0.125 l -0.21875,1.21875 c -0.0135,0.0771 -5e-4,0.16803 0.0625,0.21875 l 0.75,0.625 c -0.13122,0.50077 -0.30945,0.96325 -0.46875,1.4375 l -0.65625,-0.71875 c -0.0351,-0.0402 -0.0729,-0.0856 -0.125,-0.0937 -0.0477,0.0289 -0.0774,0.0745 -0.0937,0.125 l -0.40625,1.1875 c -0.0234,0.0737 -0.0227,0.15922 0.0312,0.21875 l 0.6875,0.78125 c -0.20529,0.49075 -0.39298,0.97746 -0.625,1.4375 l -0.5625,-0.875 c -0.0288,-0.0456 -0.0738,-0.0785 -0.125,-0.0937 -0.0477,0.0187 -0.10061,0.0461 -0.125,0.0937 L 292.5,372.7193 c -0.036,0.0712 -0.0423,0.18368 0,0.25 l 0.59375,0.90625 c -0.2367,0.39667 -0.46558,0.78461 -0.71875,1.15625 l -0.5,-0.96875 c -0.0261,-0.0468 -0.0756,-0.0736 -0.125,-0.0937 -0.0522,0.0182 -0.0975,0.0475 -0.125,0.0937 l -0.65625,1.0625 c -0.0414,0.0671 -0.0351,0.14931 0,0.21875 l 0.5,0.9375 c -0.31149,0.39829 -0.64385,0.75871 -0.96875,1.125 l -0.34375,-0.9375 c -0.0198,-0.0505 -0.0801,-0.0992 -0.125,-0.125 -0.0531,0.0108 -0.0907,0.0231 -0.125,0.0625 l -0.78125,0.9682 c -0.0486,0.0609 -0.0609,0.14478 -0.0312,0.21875 l 0.34375,0.9375 c -0.39033,0.38874 -0.76133,0.77736 -1.15625,1.125 L 288.0625,378.75 c -0.0135,-0.053 -0.0513,-0.0921 -0.0937,-0.125 -0.0531,0.003 -0.11764,0.0271 -0.15625,0.0625 l -0.90625,0.84375 c -0.0576,0.0533 -0.0814,0.14052 -0.0625,0.21875 l 0.21875,0.90625 c -0.46044,0.36021 -0.92968,0.69243 -1.375,1 l -0.0312,-0.875 c 0,-0.053 2.5e-4,-0.0861 -0.0312,-0.125 -0.0531,-0.006 -0.11062,0.004 -0.15625,0.0312 l -1.0625,0.65625 c -0.0657,0.0417 -0.0974,0.10956 -0.0937,0.1875 l 0.0312,1 c -0.57573,0.35273 -1.09686,0.64409 -1.59375,0.90625 l 0.0937,-0.875 c 0.009,-0.0533 -0.009,-0.11175 -0.0312,-0.15625 -0.0522,-0.0145 -0.10756,0.0101 -0.15625,0.0312 l -1.125,0.46875 c -0.0729,0.0306 -0.11708,0.10926 -0.125,0.1875 l -0.125,1.0625 c -0.7029,0.31367 -1.19665,0.50186 -1.28125,0.53125 -0.0846,-0.0294 -0.57835,-0.21758 -1.28125,-0.53125 l -0.125,-1.0625 c -0.009,-0.0782 -0.0522,-0.1569 -0.125,-0.1875 l -1.125,-0.46875 c -0.0486,-0.0211 -0.10405,-0.0457 -0.15625,-0.0312 -0.0261,0.0445 -0.0403,0.10297 -0.0312,0.15625 l 0.0937,0.875 c -0.49689,-0.26216 -1.01802,-0.55352 -1.59375,-0.90625 l 0.0312,-1 c 0,-0.0779 -0.0279,-0.14583 -0.0937,-0.1875 l -1.0625,-0.65625 c -0.0459,-0.0273 -0.10315,-0.0376 -0.15625,-0.0312 -0.0342,0.0389 -0.0312,0.072 -0.0312,0.125 l -0.0312,0.875 c -0.44541,-0.30757 -0.91456,-0.63979 -1.375,-1 L 273.1565,379.75 c 0.0198,-0.0782 -0.009,-0.16547 -0.0625,-0.21875 l -0.90625,-0.84375 c -0.0387,-0.0354 -0.10315,-0.0597 -0.15625,-0.0625 -0.0423,0.0328 -0.0801,0.072 -0.0937,0.125 l -0.21875,0.90625 c -0.39492,-0.34764 -0.76601,-0.73626 -1.15625,-1.125 l 0.34375,-0.9375 c 0.0288,-0.074 0.0174,-0.15782 -0.0312,-0.21875 l -0.78125,-0.96875 c -0.0342,-0.0394 -0.072,-0.0517 -0.125,-0.0625 -0.0459,0.0257 -0.1052,0.0745 -0.125,0.125 l -0.34375,0.9375 c -0.3249,-0.36629 -0.65726,-0.72671 -0.96875,-1.125 l 0.5,-0.9375 c 0.0351,-0.0695 0.0423,-0.15161 0,-0.21875 l -0.65625,-1.0625 c -0.027,-0.0463 -0.0729,-0.0756 -0.125,-0.0937 -0.0495,0.0201 -0.0989,0.047 -0.125,0.0937 l -0.5,0.96875 c -0.25317,-0.37164 -0.48214,-0.75958 -0.71875,-1.15625 l 0.5934,-0.90625 c 0.0423,-0.0663 0.0369,-0.17881 0,-0.25 l -0.5625,-1.09375 c -0.0243,-0.0476 -0.0765,-0.0751 -0.125,-0.0937 -0.0504,0.0153 -0.0962,0.0482 -0.125,0.0937 l -0.5625,0.875 c -0.23211,-0.46004 -0.41971,-0.94675 -0.625,-1.4375 l 0.6875,-0.78125 c 0.054,-0.0595 0.0546,-0.14504 0.0312,-0.21875 l -0.40625,-1.1875 c -0.0171,-0.0505 -0.046,-0.0961 -0.0937,-0.125 -0.0522,0.008 -0.09,0.0535 -0.125,0.0937 l -0.65625,0.71875 c -0.1593,-0.47425 -0.33753,-0.93673 -0.46875,-1.4375 l 0.75,-0.625 c 0.0585,-0.0508 0.076,-0.14162 0.0625,-0.21875 l -0.21875,-1.21875 c -0.009,-0.053 -0.0202,-0.0904 -0.0625,-0.125 -0.0513,8.1e-4 -0.11485,-0.003 -0.15625,0.0312 l -0.71875,0.625 c -0.0612,-0.32086 -0.10711,-0.63771 -0.15625,-0.96875 a 0.31253122,0.31253122 0 0 0 -0.0625,-0.125 l 0.34375,-0.8125 -0.75,-1.25 c -0.0315,-0.0428 -0.0729,-0.0489 -0.125,-0.0625 z"
         inkscape:connector-curvature="0" />
    </g>
    <path
       inkscape:connector-curvature="0"
       id="path19468"
       d="m 280,348.36223 c -10.49341,0 -19,8.50659 -19,19 0,10.49341 8.50659,19 19,19 10.49341,0 19,-8.50659 19,-19 0,-10.49341 -8.50659,-19 -19,-19 z m 0,2 c 9.37701,-9e-5 17,7.623 17,17 0,9.37709 -7.62299,17 -17,17 -9.37701,9e-5 -17,-7.62291 -17,-17 0,-9.377 7.62299,-17 17,-17 z m 0,2 c -8.29613,0 -15,6.70391 -15,15 0,8.29618 6.70387,15 15,15 8.29614,0 15,-6.70382 15,-15 0,-8.29609 -6.70386,-15 -15,-15 z m 0.875,5.71875 a 1.0001001,1.0001001 0 0 1 0.125,0 1.0001001,1.0001001 0 0 1 0.9375,0.75 l 3.4375,13.3125 1.6875,-5.09375 A 1.0001001,1.0001001 0 0 1 288,366.36223 l 4,0 a 1.0007962,1.0007962 0 0 1 0,2 l -3.3125,0 -2.46875,7.6875 a 1.0001001,1.0001001 0 0 1 -1.9375,-0.0625 l -3.40625,-13.21875 -2.78125,9.0625 a 1.0001001,1.0001001 0 0 1 -1.90625,0.0625 l -2.1875,-5.875 -0.78125,1.75 a 1.0001001,1.0001001 0 0 1 -0.90625,0.59375 l -4.3125,0 a 1.0007962,1.0007962 0 1 1 0,-2 l 3.65625,0 1.5,-3.4375 A 1.0001001,1.0001001 0 0 1 275,362.98723 l 2.03125,5.46875 L 280,358.79973 a 1.0001001,1.0001001 0 0 1 0.875,-0.71875 z"
       style="color:#000000;fill:#3498db;fill-opacity:1;fill-rule:nonzero;stroke:none;stroke-width:3;marker:none;visibility:visible;display:inline;overflow:visible;enable-background:accumulate" />
  </g>
</svg>
